<svg width="51" height="50" viewBox="0 0 51 50" fill="none" xmlns="http://www.w3.org/2000/svg">
<g clip-path="url(#clip0_516_1658)">
<path d="M25.2395 10.9375C22.4386 10.9375 19.7007 11.7623 17.3719 13.3075C15.0431 14.8527 13.228 17.0489 12.1562 19.6185C11.0844 22.1881 10.8039 25.0156 11.3504 27.7435C11.8968 30.4713 13.2455 32.977 15.226 34.9437C17.2065 36.9104 19.7297 38.2497 22.4768 38.7923C25.2238 39.3349 28.0711 39.0564 30.6587 37.9921C33.2464 36.9277 35.458 35.1253 37.0141 32.8127C38.5702 30.5001 39.4007 27.7813 39.4007 25C39.3955 21.272 37.9018 17.6981 35.2472 15.062C32.5926 12.4259 28.9937 10.9427 25.2395 10.9375ZM25.2395 34.375C23.3723 34.375 21.547 33.8252 19.9944 32.795C18.4419 31.7649 17.2318 30.3007 16.5173 28.5877C15.8027 26.8746 15.6158 24.9896 15.9801 23.171C16.3443 21.3525 17.2435 19.682 18.5638 18.3709C19.8841 17.0598 21.5663 16.1669 23.3977 15.8051C25.229 15.4434 27.1272 15.6291 28.8523 16.3386C30.5774 17.0482 32.0519 18.2498 33.0892 19.7915C34.1266 21.3332 34.6803 23.1458 34.6803 25C34.6803 27.4864 33.6856 29.871 31.9151 31.6291C30.1446 33.3873 27.7433 34.375 25.2395 34.375ZM22.8793 5.46875V2.34375C22.8793 1.72215 23.1279 1.12601 23.5706 0.686468C24.0132 0.24693 24.6135 0 25.2395 0C25.8654 0 26.4658 0.24693 26.9084 0.686468C27.351 1.12601 27.5997 1.72215 27.5997 2.34375V5.46875C27.5997 6.09035 27.351 6.68649 26.9084 7.12603C26.4658 7.56557 25.8654 7.8125 25.2395 7.8125C24.6135 7.8125 24.0132 7.56557 23.5706 7.12603C23.1279 6.68649 22.8793 6.09035 22.8793 5.46875ZM37.4732 12.8516C37.2532 12.6338 37.0786 12.3751 36.9594 12.0902C36.8403 11.8053 36.779 11.4999 36.779 11.1914C36.779 10.8829 36.8403 10.5775 36.9594 10.2926C37.0786 10.0077 37.2532 9.74899 37.4732 9.53125L39.6957 7.32422C40.1391 6.88392 40.7405 6.63656 41.3675 6.63656C41.9946 6.63656 42.5959 6.88392 43.0393 7.32422C43.4827 7.76452 43.7318 8.3617 43.7318 8.98438C43.7318 9.60705 43.4827 10.2042 43.0393 10.6445L40.8168 12.8516C40.5971 13.069 40.3363 13.2413 40.0494 13.3586C39.7626 13.4759 39.4552 13.5359 39.145 13.5352C38.5193 13.5325 37.9194 13.2872 37.4732 12.8516ZM50.415 25C50.415 25.6216 50.1663 26.2177 49.7237 26.6573C49.2811 27.0968 48.6807 27.3438 48.0548 27.3438H44.9078C44.2819 27.3438 43.6815 27.0968 43.2389 26.6573C42.7963 26.2177 42.5476 25.6216 42.5476 25C42.5476 24.3784 42.7963 23.7823 43.2389 23.3427C43.6815 22.9032 44.2819 22.6563 44.9078 22.6562H48.0548C48.6807 22.6563 49.2811 22.9032 49.7237 23.3427C50.1663 23.7823 50.415 24.3784 50.415 25ZM43.0393 39.3555C43.2594 39.5732 43.434 39.8319 43.5531 40.1168C43.6722 40.4017 43.7335 40.7072 43.7335 41.0156C43.7335 41.3241 43.6722 41.6295 43.5531 41.9144C43.434 42.1993 43.2594 42.458 43.0393 42.6758C42.8223 42.8968 42.562 43.0715 42.2745 43.189C41.987 43.3066 41.6784 43.3646 41.3675 43.3594C41.0573 43.3601 40.75 43.3001 40.4631 43.1828C40.1762 43.0655 39.9155 42.8932 39.6957 42.6758L37.4732 40.4687C37.0298 40.0284 36.7807 39.4313 36.7807 38.8086C36.7807 38.1859 37.0298 37.5887 37.4732 37.1484C37.9166 36.7081 38.518 36.4608 39.145 36.4608C39.7721 36.4608 40.3734 36.7081 40.8168 37.1484L43.0393 39.3555ZM27.5997 44.5312V47.6562C27.5997 48.2779 27.351 48.874 26.9084 49.3135C26.4658 49.7531 25.8654 50 25.2395 50C24.6135 50 24.0132 49.7531 23.5706 49.3135C23.1279 48.874 22.8793 48.2779 22.8793 47.6562V44.5312C22.8793 43.9096 23.1279 43.3135 23.5706 42.874C24.0132 42.4344 24.6135 42.1875 25.2395 42.1875C25.8654 42.1875 26.4658 42.4344 26.9084 42.874C27.351 43.3135 27.5997 43.9096 27.5997 44.5312ZM13.0057 37.1484C13.2258 37.3662 13.4004 37.6249 13.5195 37.9098C13.6386 38.1947 13.6999 38.5001 13.6999 38.8086C13.6999 39.1171 13.6386 39.4225 13.5195 39.7074C13.4004 39.9923 13.2258 40.251 13.0057 40.4687L10.7832 42.6758C10.5635 42.8932 10.3027 43.0655 10.0158 43.1828C9.72898 43.3001 9.42164 43.3601 9.11141 43.3594C8.80055 43.3646 8.4919 43.3066 8.20441 43.189C7.91692 43.0715 7.65666 42.8968 7.4396 42.6758C7.21957 42.458 7.04498 42.1993 6.92586 41.9144C6.80673 41.6295 6.74541 41.3241 6.74541 41.0156C6.74541 40.7072 6.80673 40.4017 6.92586 40.1168C7.04498 39.8319 7.21957 39.5732 7.4396 39.3555L9.66213 37.1484C9.8814 36.9299 10.1419 36.7566 10.4288 36.6383C10.7157 36.52 11.0233 36.4591 11.3339 36.4591C11.6446 36.4591 11.9522 36.52 12.239 36.6383C12.5259 36.7566 12.7865 36.9299 13.0057 37.1484ZM5.57111 27.3438H2.42417C1.7982 27.3438 1.19788 27.0968 0.755252 26.6573C0.312628 26.2177 0.0639648 25.6216 0.0639648 25C0.0639648 24.3784 0.312628 23.7823 0.755252 23.3427C1.19788 22.9032 1.7982 22.6563 2.42417 22.6562H5.57111C6.19707 22.6563 6.7974 22.9032 7.24002 23.3427C7.68265 23.7823 7.93131 24.3784 7.93131 25C7.93131 25.6216 7.68265 26.2177 7.24002 26.6573C6.7974 27.0968 6.19707 27.3438 5.57111 27.3438ZM7.4396 10.6445C6.99621 10.2042 6.74711 9.60705 6.74711 8.98438C6.74711 8.3617 6.99621 7.76452 7.4396 7.32422C7.88299 6.88392 8.48436 6.63656 9.11141 6.63656C9.73846 6.63656 10.3398 6.88392 10.7832 7.32422L13.0057 9.53125C13.2258 9.74899 13.4004 10.0077 13.5195 10.2926C13.6386 10.5775 13.6999 10.8829 13.6999 11.1914C13.6999 11.4999 13.6386 11.8053 13.5195 12.0902C13.4004 12.3751 13.2258 12.6338 13.0057 12.8516C12.5595 13.2872 11.9596 13.5325 11.3339 13.5352C11.0237 13.5359 10.7164 13.4759 10.4295 13.3586C10.1426 13.2413 9.88187 13.069 9.66213 12.8516L7.4396 10.6445Z" fill="black"/>
</g>
<defs>
<clipPath id="clip0_516_1658">
<rect width="50.351" height="50" fill="white" transform="translate(0.0639648)"/>
</clipPath>
</defs>
</svg>
