<svg width="51" height="50" viewBox="0 0 51 50" fill="none" xmlns="http://www.w3.org/2000/svg">
<path d="M38.6662 26.5625C38.6662 25.1812 38.1136 23.8564 37.13 22.8796C36.1464 21.9029 34.8123 21.3542 33.4213 21.3542C32.3094 21.3542 31.2814 21.6875 30.4841 22.2708V21.875C30.4841 20.4937 29.9315 19.1689 28.9479 18.1921C27.9643 17.2154 26.6303 16.6667 25.2392 16.6667C23.8482 16.6667 22.5141 17.2154 21.5305 18.1921C20.5469 19.1689 19.9943 20.4937 19.9943 21.875V22.2708C19.1971 21.6875 18.1691 21.3542 17.0572 21.3542C15.6662 21.3542 14.3321 21.9029 13.3485 22.8796C12.3649 23.8564 11.8123 25.1812 11.8123 26.5625C11.8123 28.625 13.0501 30.4167 14.8124 31.25C13.0501 32.0833 11.8123 33.8542 11.8123 35.9375C11.8123 37.3188 12.3649 38.6436 13.3485 39.6203C14.3321 40.5971 15.6662 41.1458 17.0572 41.1458C18.1691 41.1458 19.1971 40.7917 19.9943 40.2292V40.625C19.9943 42.0063 20.5469 43.3311 21.5305 44.3078C22.5141 45.2846 23.8482 45.8333 25.2392 45.8333C26.6303 45.8333 27.9643 45.2846 28.9479 44.3078C29.9315 43.3311 30.4841 42.0063 30.4841 40.625V40.2292C31.2814 40.7917 32.3094 41.1458 33.4213 41.1458C34.8123 41.1458 36.1464 40.5971 37.13 39.6203C38.1136 38.6436 38.6662 37.3188 38.6662 35.9375C38.6662 33.8542 37.4284 32.0833 35.6661 31.25C37.4284 30.4167 38.6662 28.625 38.6662 26.5625ZM25.2392 36.4583C23.8482 36.4583 22.5141 35.9096 21.5305 34.9328C20.5469 33.9561 19.9943 32.6313 19.9943 31.25C19.9943 29.8687 20.5469 28.5439 21.5305 27.5671C22.5141 26.5904 23.8482 26.0417 25.2392 26.0417C26.6303 26.0417 27.9643 26.5904 28.9479 27.5671C29.9315 28.5439 30.4841 29.8687 30.4841 31.25C30.4841 32.6313 29.9315 33.9561 28.9479 34.9328C27.9643 35.9096 26.6303 36.4583 25.2392 36.4583ZM23.1413 12.5C23.1413 11.3542 24.0854 10.4167 25.2392 10.4167C26.3931 10.4167 27.3372 11.3542 27.3372 12.5C27.3372 13.6458 26.3931 14.5833 25.2392 14.5833C24.0854 14.5833 23.1413 13.6458 23.1413 12.5ZM14.7494 16.6667C14.7494 15.5208 15.6935 14.5833 16.8474 14.5833C18.0013 14.5833 18.9454 15.5208 18.9454 16.6667C18.9454 17.8125 18.0013 18.75 16.8474 18.75C15.6935 18.75 14.7494 17.8125 14.7494 16.6667ZM10.5535 12.5C9.39965 12.5 8.45557 11.5625 8.45557 10.4167C8.45557 9.27082 9.39965 8.33332 10.5535 8.33332C11.7074 8.33332 12.6515 9.27082 12.6515 10.4167C12.6515 11.5625 11.7074 12.5 10.5535 12.5ZM16.8474 6.24999C16.8474 5.10416 17.7915 4.16666 18.9454 4.16666C20.0992 4.16666 21.0433 5.10416 21.0433 6.24999C21.0433 7.39582 20.0992 8.33332 18.9454 8.33332C17.7915 8.33332 16.8474 7.39582 16.8474 6.24999ZM29.4352 6.24999C29.4352 5.10416 30.3792 4.16666 31.5331 4.16666C32.687 4.16666 33.6311 5.10416 33.6311 6.24999C33.6311 7.39582 32.687 8.33332 31.5331 8.33332C30.3792 8.33332 29.4352 7.39582 29.4352 6.24999ZM42.0229 10.4167C42.0229 11.5625 41.0788 12.5 39.9249 12.5C38.7711 12.5 37.827 11.5625 37.827 10.4167C37.827 9.27082 38.7711 8.33332 39.9249 8.33332C41.0788 8.33332 42.0229 9.27082 42.0229 10.4167ZM33.6311 14.5833C34.7849 14.5833 35.729 15.5208 35.729 16.6667C35.729 17.8125 34.7849 18.75 33.6311 18.75C32.4772 18.75 31.5331 17.8125 31.5331 16.6667C31.5331 15.5208 32.4772 14.5833 33.6311 14.5833Z" fill="black"/>
</svg>
