<svg width="33" height="39" viewBox="0 0 33 39" fill="none" xmlns="http://www.w3.org/2000/svg">
<path d="M13.4547 38.25V29.1975C12.449 29.5588 11.379 29.75 10.2449 29.75C4.89507 29.75 0.615234 25.5 0.615234 20.1875C0.615234 17.4887 1.68519 15.0663 3.52552 13.3238C3.03334 12.1763 2.75515 10.9013 2.75515 9.5625C2.75515 4.25 7.03499 0 12.3848 0C15.7231 0 18.6761 1.7 20.4095 4.25H20.9445C22.4901 4.25 24.0205 4.55231 25.4485 5.13966C26.8764 5.72701 28.1739 6.5879 29.2668 7.67319C30.3597 8.75847 31.2266 10.0469 31.8181 11.4649C32.4096 12.8829 32.714 14.4027 32.714 15.9375C32.714 17.4723 32.4096 18.9921 31.8181 20.4101C31.2266 21.8281 30.3597 23.1165 29.2668 24.2018C28.1739 25.2871 26.8764 26.148 25.4485 26.7353C24.0205 27.3227 22.4901 27.625 20.9445 27.625C19.8745 27.625 18.8045 27.4762 17.7346 27.1787V38.25H13.4547Z" fill="black"/>
</svg>
